<svg width="320" height="320" viewBox="0 0 320 320" fill="none" xmlns="http://www.w3.org/2000/svg">
<g filter="url(#filter0_f_818_8)">
<path d="M60 159.993C60 104.768 104.768 60 159.993 60C215.218 60 259.986 104.768 259.986 159.993C259.986 215.218 215.218 259.986 159.993 259.986C104.768 259.986 60 215.218 60 159.993Z" fill="url(#paint0_radial_818_8)"/>
</g>
<g filter="url(#filter1_d_818_8)">
<path d="M120.01 84C120.01 70.7452 130.755 60 144.01 60H175.994C189.248 60 199.994 70.7452 199.994 84V115.984C199.994 129.239 189.248 139.984 175.994 139.984H144.01C130.755 139.984 120.01 129.239 120.01 115.984V84Z" fill="url(#paint1_linear_818_8)" shape-rendering="crispEdges"/>
<path d="M158.486 89.5231C158.615 89.5229 158.616 89.5233 158.747 89.5231L159.606 89.5241C159.812 89.5241 160.019 89.5242 160.225 89.5241C160.782 89.524 161.34 89.5251 161.898 89.526C162.482 89.5269 163.067 89.5269 163.65 89.527C164.755 89.5274 165.859 89.5286 166.964 89.5299C168.222 89.5314 169.48 89.5322 170.738 89.5329C173.276 89.5342 175.814 89.5358 178.352 89.5387C178.541 89.8898 178.729 90.2421 178.917 90.5944V90.5954L179.098 90.9294C181.064 94.6288 181.593 99.1022 180.783 103.211L180.782 103.216C180.767 103.304 180.752 103.391 180.736 103.481C180.319 105.908 179.362 108.235 178.024 110.307C177.977 110.381 177.929 110.456 177.88 110.532C175.199 114.629 171.196 117.43 166.581 118.986C166.358 119.061 166.356 119.062 166.132 119.137C161.511 120.571 156.182 120.28 151.722 118.46C151.533 118.383 151.532 118.382 151.343 118.305H151.344C150.983 118.149 150.631 117.979 150.275 117.802L150.272 117.8L150.026 117.681C147.702 116.547 145.602 115.012 143.904 113.07C144.511 113.05 145.118 113.032 145.726 113.021H145.727L146.524 112.997C147.457 112.961 148.169 112.993 148.824 113.169C149.475 113.343 150.087 113.665 150.808 114.231L150.822 114.243L150.839 114.252C153.164 115.574 155.826 116.064 158.444 116.048C158.726 116.047 159.009 116.049 159.292 116.05H159.293C161.06 116.053 162.737 115.831 164.438 115.322C164.574 115.281 164.711 115.24 164.853 115.198L164.855 115.197C167.802 114.29 170.378 112.83 172.56 110.618L172.559 110.617C172.654 110.521 172.751 110.426 172.85 110.327L172.855 110.322C175.611 107.398 176.998 103.114 176.942 99.1637L176.941 99.1579C176.886 97.5427 176.55 96.066 176.058 94.5739L175.837 93.9333C175.755 93.693 175.721 93.5932 175.705 93.5192C175.692 93.4575 175.691 93.4171 175.691 93.2809V93.0299L175.44 93.0309C173.317 93.039 171.193 93.0492 169.069 93.0622C168.084 93.0681 167.098 93.0733 166.112 93.0768C165.252 93.0799 164.392 93.0844 163.531 93.0905C163.077 93.0936 162.622 93.0965 162.168 93.0973C161.658 93.0986 161.147 93.1008 160.638 93.1051H160.187C158.297 93.1276 156.714 93.6062 155.284 94.9088L155.276 94.9147L155.271 94.9215C154.151 96.1117 153.661 97.5868 153.631 99.1754H153.63L153.631 99.1891C153.69 100.862 154.259 102.061 155.048 103.408H150.063C149.082 101.121 148.775 98.5517 149.598 96.1676C150.11 94.9005 150.76 93.7871 151.679 92.7848L151.684 92.778C151.775 92.6713 151.868 92.5646 151.962 92.4547C153.305 90.9872 155.054 90.077 157 89.6676L157.006 89.6657C157.103 89.6431 157.199 89.6206 157.299 89.5973C157.692 89.5302 158.065 89.5228 158.486 89.5231Z" fill="black" stroke="white" stroke-width="0.5"/>
<path d="M155.481 80.4743C161.72 79.0197 168.403 80.5657 173.422 84.5632C173.507 84.6303 173.591 84.6971 173.678 84.7663C174.372 85.3249 174.706 85.5938 174.93 85.8083C175.046 85.9186 175.13 86.0147 175.222 86.1315C172.972 86.2222 171.828 86.2599 171.044 86.1559C170.238 86.0491 169.826 85.7964 168.919 85.2331V85.2321L168.909 85.2272L168.582 85.0544C166.926 84.2276 164.992 83.9314 163.231 83.7194H163.23L162.956 83.6823C158.471 83.0817 153.869 84.4025 150.28 87.0934L150.273 87.0993C149.697 87.5611 149.17 88.0599 148.658 88.5788L148.4 88.8327L148.394 88.8395C146.774 90.5494 145.74 92.8253 145.093 95.0222C145.059 95.1364 145.026 95.2511 144.991 95.3688L144.989 95.3727C144.266 97.9594 144.445 100.821 144.939 103.408H141.043C139.963 99.4522 140.397 94.965 142.141 91.2585L142.142 91.2575C142.186 91.1632 142.23 91.0686 142.275 90.9714L142.274 90.9704C143.663 88.0419 145.808 85.5186 148.446 83.6393L148.447 83.6384C148.519 83.5867 148.591 83.5353 148.665 83.4821C150.527 82.1612 152.658 81.1216 154.876 80.6198L154.877 80.6188C155.079 80.571 155.28 80.5223 155.481 80.4743Z" fill="black" stroke="white" stroke-width="0.5"/>
<path d="M171.266 96.3244C172.164 99.1298 172.112 101.808 170.836 104.494C170.425 105.298 169.872 105.986 169.265 106.687L169.262 106.69C169.188 106.778 169.114 106.868 169.037 106.959C168.025 108.074 166.555 108.743 165.111 109.277L165.109 109.278C165 109.319 164.891 109.359 164.78 109.402C163.86 109.73 162.954 109.811 161.954 109.81C161.861 109.81 161.768 109.81 161.672 109.81C161.365 109.81 161.059 109.81 160.751 109.809C160.53 109.809 160.307 109.809 160.085 109.809C159.486 109.809 158.887 109.808 158.287 109.807C157.66 109.806 157.033 109.806 156.406 109.806C155.219 109.805 154.032 109.804 152.845 109.803C151.494 109.801 150.142 109.801 148.79 109.8C146.061 109.799 143.331 109.796 140.601 109.793C140.414 109.442 140.227 109.09 140.04 108.738V108.737C139.981 108.626 139.922 108.515 139.861 108.402C139.332 107.402 139.077 106.918 138.951 106.622C138.889 106.479 138.864 106.392 138.852 106.32C138.851 106.314 138.851 106.308 138.85 106.302C138.878 106.302 138.907 106.302 138.936 106.302C141.72 106.297 144.504 106.289 147.288 106.278C148.635 106.272 149.981 106.268 151.327 106.266C152.501 106.264 153.676 106.261 154.85 106.255C155.471 106.252 156.092 106.25 156.712 106.25L158.472 106.243C158.685 106.242 158.898 106.243 159.111 106.243C161.305 106.25 163.279 105.841 164.997 104.301L165.005 104.294L165.013 104.286C166.078 103.159 166.634 101.574 166.648 100.052V100.038C166.583 98.6326 166.16 97.4987 165.475 96.3244H171.266Z" fill="black" stroke="white" stroke-width="0.5"/>
</g>
<path d="M101.637 175.113C101.561 174.28 101.224 173.632 100.626 173.17C100.035 172.7 99.1899 172.465 98.0914 172.465C97.3642 172.465 96.7581 172.56 96.2733 172.749C95.7884 172.939 95.4248 173.2 95.1824 173.533C94.9399 173.859 94.8149 174.234 94.8074 174.658C94.7922 175.007 94.8604 175.314 95.0119 175.579C95.171 175.844 95.3983 176.079 95.6937 176.283C95.9967 176.48 96.3604 176.655 96.7846 176.806C97.2089 176.958 97.6861 177.09 98.2164 177.204L100.216 177.658C101.368 177.908 102.383 178.242 103.262 178.658C104.148 179.075 104.891 179.571 105.489 180.147C106.095 180.723 106.554 181.386 106.864 182.136C107.175 182.886 107.334 183.727 107.341 184.658C107.334 186.128 106.963 187.389 106.228 188.442C105.493 189.496 104.436 190.302 103.057 190.863C101.686 191.424 100.031 191.704 98.0914 191.704C96.1445 191.704 94.4475 191.412 93.0005 190.829C91.5536 190.246 90.4286 189.359 89.6255 188.17C88.8225 186.98 88.4096 185.477 88.3869 183.658H93.7733C93.8187 184.408 94.0195 185.033 94.3755 185.533C94.7316 186.033 95.2202 186.412 95.8414 186.67C96.4702 186.927 97.1975 187.056 98.0233 187.056C98.7808 187.056 99.4248 186.954 99.9551 186.749C100.493 186.545 100.906 186.261 101.194 185.897C101.482 185.533 101.629 185.117 101.637 184.647C101.629 184.208 101.493 183.833 101.228 183.522C100.963 183.204 100.554 182.931 100.001 182.704C99.4551 182.469 98.7581 182.253 97.9096 182.056L95.4778 181.488C93.4627 181.026 91.8755 180.28 90.7164 179.249C89.5574 178.211 88.9816 176.81 88.9892 175.045C88.9816 173.605 89.368 172.344 90.1483 171.261C90.9286 170.177 92.0081 169.333 93.3869 168.727C94.7657 168.121 96.3377 167.817 98.1028 167.817C99.9058 167.817 101.47 168.124 102.796 168.738C104.129 169.344 105.163 170.196 105.898 171.295C106.633 172.393 107.008 173.666 107.023 175.113H101.637ZM109.682 191.408V168.136H119.296C121.038 168.136 122.542 168.477 123.807 169.158C125.08 169.833 126.061 170.776 126.751 171.988C127.44 173.192 127.785 174.594 127.785 176.192C127.785 177.799 127.432 179.204 126.728 180.408C126.031 181.605 125.035 182.533 123.739 183.192C122.444 183.852 120.906 184.181 119.126 184.181H113.194V179.749H118.08C118.929 179.749 119.637 179.602 120.205 179.306C120.781 179.011 121.216 178.598 121.512 178.067C121.807 177.53 121.955 176.905 121.955 176.192C121.955 175.473 121.807 174.852 121.512 174.329C121.216 173.799 120.781 173.389 120.205 173.102C119.629 172.814 118.921 172.67 118.08 172.67H115.307V191.408H109.682ZM132.279 191.408H126.233L134.086 168.136H141.574L149.427 191.408H143.381L137.915 173.999H137.733L132.279 191.408ZM131.472 182.249H144.108V186.522H131.472V182.249ZM151.432 191.408V168.136H161.046C162.788 168.136 164.292 168.45 165.557 169.079C166.83 169.7 167.811 170.594 168.501 171.761C169.19 172.92 169.535 174.295 169.535 175.886C169.535 177.499 169.182 178.871 168.478 179.999C167.773 181.121 166.773 181.977 165.478 182.567C164.182 183.151 162.648 183.442 160.876 183.442H154.796V179.011H159.83C160.679 179.011 161.387 178.901 161.955 178.681C162.531 178.454 162.966 178.113 163.262 177.658C163.557 177.196 163.705 176.605 163.705 175.886C163.705 175.166 163.557 174.571 163.262 174.102C162.966 173.624 162.531 173.268 161.955 173.033C161.379 172.791 160.671 172.67 159.83 172.67H157.057V191.408H151.432ZM164.535 180.772L170.33 191.408H164.194L158.512 180.772H164.535ZM171.358 172.704V168.136H191.029V172.704H183.972V191.408H178.427V172.704H171.358ZM205.856 175.113C205.78 174.28 205.443 173.632 204.844 173.17C204.253 172.7 203.409 172.465 202.31 172.465C201.583 172.465 200.977 172.56 200.492 172.749C200.007 172.939 199.644 173.2 199.401 173.533C199.159 173.859 199.034 174.234 199.026 174.658C199.011 175.007 199.079 175.314 199.231 175.579C199.39 175.844 199.617 176.079 199.912 176.283C200.215 176.48 200.579 176.655 201.003 176.806C201.428 176.958 201.905 177.09 202.435 177.204L204.435 177.658C205.587 177.908 206.602 178.242 207.481 178.658C208.367 179.075 209.109 179.571 209.708 180.147C210.314 180.723 210.772 181.386 211.083 182.136C211.394 182.886 211.553 183.727 211.56 184.658C211.553 186.128 211.181 187.389 210.447 188.442C209.712 189.496 208.655 190.302 207.276 190.863C205.905 191.424 204.25 191.704 202.31 191.704C200.363 191.704 198.666 191.412 197.219 190.829C195.772 190.246 194.647 189.359 193.844 188.17C193.041 186.98 192.628 185.477 192.606 183.658H197.992C198.037 184.408 198.238 185.033 198.594 185.533C198.95 186.033 199.439 186.412 200.06 186.67C200.689 186.927 201.416 187.056 202.242 187.056C203 187.056 203.644 186.954 204.174 186.749C204.712 186.545 205.125 186.261 205.412 185.897C205.7 185.533 205.848 185.117 205.856 184.647C205.848 184.208 205.712 183.833 205.447 183.522C205.181 183.204 204.772 182.931 204.219 182.704C203.674 182.469 202.977 182.253 202.128 182.056L199.697 181.488C197.681 181.026 196.094 180.28 194.935 179.249C193.776 178.211 193.2 176.81 193.208 175.045C193.2 173.605 193.587 172.344 194.367 171.261C195.147 170.177 196.227 169.333 197.606 168.727C198.984 168.121 200.556 167.817 202.322 167.817C204.125 167.817 205.689 168.124 207.015 168.738C208.348 169.344 209.382 170.196 210.117 171.295C210.852 172.393 211.227 173.666 211.242 175.113H205.856ZM213.14 172.704V168.136H232.81V172.704H225.753V191.408H220.208V172.704H213.14Z" fill="white"/>
<path d="M96.2792 220.005C96.2153 219.465 95.956 219.046 95.5015 218.748C95.0469 218.45 94.4894 218.3 93.8289 218.3C93.3459 218.3 92.9234 218.379 92.5611 218.535C92.2025 218.691 91.9219 218.906 91.7195 219.179C91.5207 219.453 91.4212 219.764 91.4212 220.112C91.4212 220.403 91.4905 220.653 91.629 220.863C91.771 221.069 91.9521 221.241 92.1723 221.379C92.3925 221.514 92.6233 221.626 92.8648 221.715C93.1062 221.8 93.3282 221.869 93.5306 221.923L94.6386 222.221C94.9226 222.296 95.2387 222.399 95.5867 222.53C95.9383 222.661 96.2739 222.841 96.5935 223.068C96.9166 223.292 97.1829 223.579 97.3925 223.931C97.602 224.282 97.7067 224.714 97.7067 225.225C97.7067 225.815 97.5523 226.347 97.2433 226.823C96.9379 227.299 96.4905 227.677 95.901 227.958C95.315 228.238 94.603 228.379 93.765 228.379C92.9837 228.379 92.3072 228.253 91.7355 228C91.1673 227.748 90.7199 227.397 90.3932 226.946C90.07 226.495 89.8871 225.971 89.8445 225.374H91.2082C91.2437 225.786 91.3822 226.127 91.6236 226.397C91.8687 226.663 92.1776 226.862 92.5505 226.994C92.9269 227.122 93.3317 227.185 93.765 227.185C94.2692 227.185 94.722 227.104 95.1233 226.94C95.5246 226.774 95.8424 226.543 96.0768 226.248C96.3111 225.95 96.4283 225.602 96.4283 225.204C96.4283 224.842 96.3271 224.547 96.1247 224.32C95.9223 224.092 95.656 223.908 95.3257 223.766C94.9954 223.624 94.6386 223.499 94.255 223.393L92.9127 223.009C92.0604 222.764 91.3857 222.414 90.8886 221.96C90.3914 221.505 90.1428 220.911 90.1428 220.175C90.1428 219.565 90.3079 219.032 90.6382 218.577C90.972 218.119 91.4195 217.764 91.9805 217.512C92.5452 217.256 93.1755 217.129 93.8715 217.129C94.5746 217.129 95.1996 217.255 95.7465 217.507C96.2934 217.755 96.7266 218.096 97.0462 218.53C97.3694 218.963 97.5398 219.455 97.5576 220.005H96.2792ZM101.879 228.187V217.278H105.565C106.421 217.278 107.12 217.432 107.664 217.741C108.21 218.047 108.615 218.46 108.878 218.982C109.141 219.504 109.272 220.087 109.272 220.729C109.272 221.372 109.141 221.956 108.878 222.482C108.619 223.008 108.217 223.427 107.674 223.739C107.131 224.048 106.435 224.202 105.586 224.202H102.944V223.031H105.543C106.129 223.031 106.6 222.929 106.955 222.727C107.31 222.525 107.568 222.251 107.727 221.907C107.891 221.559 107.972 221.166 107.972 220.729C107.972 220.293 107.891 219.902 107.727 219.558C107.568 219.213 107.308 218.943 106.95 218.748C106.591 218.549 106.115 218.45 105.522 218.45H103.2V228.187H101.879ZM112.734 228.187H111.349L115.355 217.278H116.719L120.724 228.187H119.339L116.08 219.004H115.994L112.734 228.187ZM113.246 223.925H118.828V225.097H113.246V223.925ZM132.689 220.687H131.368C131.29 220.307 131.153 219.973 130.958 219.685C130.766 219.398 130.532 219.156 130.255 218.961C129.982 218.762 129.678 218.613 129.344 218.514C129.01 218.414 128.662 218.364 128.3 218.364C127.64 218.364 127.041 218.531 126.505 218.865C125.972 219.199 125.548 219.691 125.232 220.341C124.919 220.99 124.763 221.788 124.763 222.732C124.763 223.677 124.919 224.474 125.232 225.124C125.548 225.774 125.972 226.266 126.505 226.6C127.041 226.933 127.64 227.1 128.3 227.1C128.662 227.1 129.01 227.05 129.344 226.951C129.678 226.852 129.982 226.704 130.255 226.509C130.532 226.31 130.766 226.067 130.958 225.779C131.153 225.488 131.29 225.154 131.368 224.778H132.689C132.59 225.335 132.409 225.834 132.146 226.275C131.883 226.715 131.557 227.09 131.166 227.399C130.775 227.704 130.337 227.937 129.85 228.096C129.367 228.256 128.851 228.336 128.3 228.336C127.37 228.336 126.542 228.109 125.818 227.654C125.093 227.2 124.523 226.553 124.108 225.715C123.693 224.877 123.485 223.883 123.485 222.732C123.485 221.582 123.693 220.587 124.108 219.749C124.523 218.911 125.093 218.265 125.818 217.81C126.542 217.356 127.37 217.129 128.3 217.129C128.851 217.129 129.367 217.209 129.85 217.368C130.337 217.528 130.775 217.762 131.166 218.071C131.557 218.377 131.883 218.75 132.146 219.19C132.409 219.627 132.59 220.126 132.689 220.687ZM136.824 228.187V217.278H143.408V218.45H138.145V222.136H143.067V223.308H138.145V227.015H143.493V228.187H136.824ZM154.008 228.187V217.278H160.549V218.45H155.329V222.136H160.059V223.308H155.329V228.187H154.008ZM174.016 222.732C174.016 223.883 173.808 224.877 173.393 225.715C172.977 226.553 172.407 227.2 171.683 227.654C170.958 228.109 170.131 228.336 169.201 228.336C168.27 228.336 167.443 228.109 166.718 227.654C165.994 227.2 165.424 226.553 165.008 225.715C164.593 224.877 164.385 223.883 164.385 222.732C164.385 221.582 164.593 220.587 165.008 219.749C165.424 218.911 165.994 218.265 166.718 217.81C167.443 217.356 168.27 217.129 169.201 217.129C170.131 217.129 170.958 217.356 171.683 217.81C172.407 218.265 172.977 218.911 173.393 219.749C173.808 220.587 174.016 221.582 174.016 222.732ZM172.737 222.732C172.737 221.788 172.579 220.99 172.263 220.341C171.951 219.691 171.527 219.199 170.99 218.865C170.458 218.531 169.861 218.364 169.201 218.364C168.54 218.364 167.942 218.531 167.405 218.865C166.873 219.199 166.448 219.691 166.132 220.341C165.82 220.99 165.664 221.788 165.664 222.732C165.664 223.677 165.82 224.474 166.132 225.124C166.448 225.774 166.873 226.266 167.405 226.6C167.942 226.933 168.54 227.1 169.201 227.1C169.861 227.1 170.458 226.933 170.99 226.6C171.527 226.266 171.951 225.774 172.263 225.124C172.579 224.474 172.737 223.677 172.737 222.732ZM178.237 228.187V217.278H181.923C182.775 217.278 183.475 217.423 184.022 217.715C184.569 218.002 184.974 218.398 185.236 218.902C185.499 219.407 185.631 219.98 185.631 220.623C185.631 221.266 185.499 221.836 185.236 222.333C184.974 222.83 184.571 223.221 184.027 223.505C183.484 223.785 182.79 223.925 181.944 223.925H178.962V222.732H181.902C182.484 222.732 182.953 222.647 183.308 222.477C183.667 222.306 183.926 222.065 184.086 221.752C184.249 221.436 184.331 221.06 184.331 220.623C184.331 220.186 184.249 219.804 184.086 219.478C183.922 219.151 183.661 218.899 183.303 218.721C182.944 218.54 182.47 218.45 181.881 218.45H179.558V228.187H178.237ZM183.372 223.286L186.057 228.187H184.523L181.881 223.286H183.372ZM196.498 228.187H195.113L199.119 217.278H200.482L204.488 228.187H203.103L199.843 219.004H199.758L196.498 228.187ZM197.009 223.925H202.592V225.097H197.009V223.925ZM208.187 228.187V217.278H211.873C212.726 217.278 213.425 217.423 213.972 217.715C214.519 218.002 214.924 218.398 215.187 218.902C215.449 219.407 215.581 219.98 215.581 220.623C215.581 221.266 215.449 221.836 215.187 222.333C214.924 222.83 214.521 223.221 213.977 223.505C213.434 223.785 212.74 223.925 211.895 223.925H208.912V222.732H211.852C212.434 222.732 212.903 222.647 213.258 222.477C213.617 222.306 213.876 222.065 214.036 221.752C214.199 221.436 214.281 221.06 214.281 220.623C214.281 220.186 214.199 219.804 214.036 219.478C213.873 219.151 213.612 218.899 213.253 218.721C212.894 218.54 212.42 218.45 211.831 218.45H209.508V228.187H208.187ZM213.322 223.286L216.007 228.187H214.473L211.831 223.286H213.322ZM219.185 218.45V217.278H227.367V218.45H223.937V228.187H222.616V218.45H219.185Z" fill="#A1A1AA"/>
<defs>
<filter id="filter0_f_818_8" x="0" y="0" width="319.986" height="319.986" filterUnits="userSpaceOnUse" color-interpolation-filters="sRGB">
<feFlood flood-opacity="0" result="BackgroundImageFix"/>
<feBlend mode="normal" in="SourceGraphic" in2="BackgroundImageFix" result="shape"/>
<feGaussianBlur stdDeviation="30" result="effect1_foregroundBlur_818_8"/>
</filter>
<filter id="filter1_d_818_8" x="80.0096" y="20" width="159.984" height="159.984" filterUnits="userSpaceOnUse" color-interpolation-filters="sRGB">
<feFlood flood-opacity="0" result="BackgroundImageFix"/>
<feColorMatrix in="SourceAlpha" type="matrix" values="0 0 0 0 0 0 0 0 0 0 0 0 0 0 0 0 0 0 127 0" result="hardAlpha"/>
<feOffset/>
<feGaussianBlur stdDeviation="20"/>
<feComposite in2="hardAlpha" operator="out"/>
<feColorMatrix type="matrix" values="0 0 0 0 0.658824 0 0 0 0 0.333333 0 0 0 0 0.968627 0 0 0 0.6 0"/>
<feBlend mode="normal" in2="BackgroundImageFix" result="effect1_dropShadow_818_8"/>
<feBlend mode="normal" in="SourceGraphic" in2="effect1_dropShadow_818_8" result="shape"/>
</filter>
<radialGradient id="paint0_radial_818_8" cx="0" cy="0" r="1" gradientUnits="userSpaceOnUse" gradientTransform="translate(159.993 159.993) rotate(-90) scale(141.411)">
<stop stop-color="#EC4BC7" stop-opacity="0.3"/>
<stop offset="0.5" stop-color="#8B2CFF" stop-opacity="0.2"/>
<stop offset="0.7" stop-opacity="0"/>
</radialGradient>
<linearGradient id="paint1_linear_818_8" x1="120.01" y1="60" x2="199.994" y2="139.984" gradientUnits="userSpaceOnUse">
<stop stop-color="#EC4BC7"/>
<stop offset="1" stop-color="#8B2CFF"/>
</linearGradient>
</defs>
</svg>
